PathFileType	4	(X/Y/Z)	2_coords_data.trc
DataRate	CameraRate	NumFrames	NumMarkers	Units	OrigDataRate	OrigDataStartFrame	OrigNumFrames
30.0	30.0	9	21	m	30.0	28	65
Frame#	Time	THUMB_TIP	THUMB_IP	THUMB_MCP	THUMB_CMC	INDEX_TIP	INDEX_DIP	INDEX_PIP	INDEX_MCP	MIDDLE_TIP	MIDDLE_DIP	MIDDLE_PIP	MIDDLE_MCP	RING_TIP	RING_DIP	RING_PIP	RING_MCP	PINKY_TIP	PINKY_DIP	PINKY_PIP	PINKY_MCP	WRIST
X1	Y1	Z1	X2	Y2	Z2	X3	Y3	Z3	X4	Y4	Z4	X5	Y5	Z5	X6	Y6	Z6	X7	Y7	Z7	X8	Y8	Z8	X9	Y9	Z9	X10	Y10	Z10	X11	Y11	Z11	X12	Y12	Z12	X13	Y13	Z13	X14	Y14	Z14	X15	Y15	Z15	X16	Y16	Z16	X17	Y17	Z17	X18	Y18	Z18	X19	Y19	Z19	X20	Y20	Z20	X21	Y21	Z21
26	0.8999999999999961	0.47370478766632196	-0.026855554852749597	-0.1751056122929519	0.47594480618212975	-0.02978244908331462	-0.1524248802233752	0.4743556280272061	-0.03264108313950176	-0.12147132268753252	0.47412191382654967	-0.030744157690777096	-0.07690410321498309	0.5643983561369514	0.023706317771491348	-0.17868331676529975	0.5553945304955289	0.014531947437782744	-0.165925493565442	0.5411546542461361	0.005438482914581377	-0.14730978352345708	0.5163440586956507	-0.0075249849176056705	-0.11521587531342292	0.5946628240527602	0.04488515277283456	-0.13754617442623251	0.5822471533708452	0.033069694075247624	-0.13169416132954048	0.5598874917401291	0.01843269100289724	-0.12006603926190262	0.5246344490444137	0.0015305145459850733	-0.09843995934173488	0.6052910441860069	0.03745057132841623	-0.09963808815399022	0.5902197876967257	0.02819106666096094	-0.09615688130180944	0.5682352133958933	0.017691066300924985	-0.09099854200990243	0.5325879286203257	0.0008889693671491061	-0.08196076237342187	0.5976190955182084	0.02886634912234265	-0.05328932353456639	0.5838375182385858	0.019033713593908375	-0.05581665537877667	0.5655211486852117	0.009377009932254765	-0.05929094664106882	0.5326646526466507	-0.004499878738121188	-0.06465434853706875	0.4622830810018609	-0.023011742144276925	-0.051989820119430985
27	0.9333333333333294	0.47362458449042244	-0.026959031321794336	-0.17514525481423704	0.4758361120028233	-0.02981393818185185	-0.1524525543825499	0.47425349105535497	-0.03260178301055161	-0.12149220502813018	0.474112500387748	-0.03069031859963689	-0.07692521696030741	0.5644067065359025	0.024085827803626003	-0.17857144587633494	0.5553456963776582	0.014900269536427868	-0.16586225179362052	0.5410544485223217	0.00576662479406731	-0.14730567340595196	0.5161680239064139	-0.007288131086656047	-0.11530762170383324	0.5945803591811011	0.04481587966228984	-0.13789414943257905	0.5821139472857895	0.033090007188896875	-0.13197025804311524	0.5597271844962215	0.018587460356919716	-0.12022638571794392	0.5244827439207493	0.0017876222020980492	-0.0985067455852483	0.6053496798695644	0.03725046716033664	-0.10000376706735803	0.5902182177116383	0.028112051270215765	-0.09646424619830818	0.5681791136275545	0.017777037318699174	-0.09120636099673962	0.532456313822358	0.0012325176491322365	-0.0819932574490102	0.5978144855015091	0.028796090261076213	-0.0537452926866947	0.5839436494342347	0.019065185657227257	-0.056176218926956456	0.5655275216617393	0.009554928761943415	-0.05952484112912093	0.5325768337177024	-0.00418023106901555	-0.06467081037045042	0.4622830810018609	-0.023011742144276925	-0.051989820119430985
28	0.9666666666666625	0.473619700279595	-0.02704614746343592	-0.17517594533505126	0.47576558877201935	-0.029831292292641698	-0.15246827854917405	0.47412676479240967	-0.03257374700813531	-0.12150679928707603	0.4741085921558251	-0.030647448945361977	-0.07694023058890676	0.564264458137391	0.02487942186924852	-0.1784279973381796	0.5551236221902105	0.01565817712622286	-0.16580208099218885	0.5407719519764939	0.006423754582892793	-0.14734226421715146	0.5158271387345383	-0.0068878553771566375	-0.11549586054899003	0.5945398831139912	0.044423615340507094	-0.138589339923525	0.5819378353152947	0.03291894243082649	-0.13252049386182324	0.5594146127963806	0.01877553260246345	-0.12060084807050675	0.5241676379590856	0.002240386105881287	-0.09868310146745352	0.6054924292223172	0.03673603106580636	-0.10067000570504847	0.5902386142017859	0.027847652975015458	-0.09702064107068198	0.5680882756109739	0.017838444301245482	-0.09160231835628818	0.5322002716668663	0.0018149223072844167	-0.08211449722513375	0.5981933175379645	0.028519131065587233	-0.05461364120792944	0.5841463973358906	0.0190032531729174	-0.05687905524698855	0.5655610107992466	0.00975305667765769	-0.0600142252715028	0.5324180157294338	-0.003658306883745799	-0.06476403118608864	0.4622830810018609	-0.023011742144276925	-0.051989820119430985
29	0.9999999999999956	0.473712110978741	-0.026981978679676666	-0.1751975465418017	0.47573880267112967	-0.029736964920884068	-0.15247525414876262	0.47395642852455944	-0.03251051613558109	-0.12152447780856251	0.4741081457530162	-0.03059014216608691	-0.07695790798655489	0.5638766164323904	0.026082235955488864	-0.17832681122526856	0.5546437699533902	0.01681082529305422	-0.16580501062696373	0.5402407051433717	0.007421190958387336	-0.14746390040594237	0.5152759706085458	-0.006287956319197763	-0.11580229266838182	0.5945469184571313	0.04362578117939808	-0.13966444655191784	0.581687183914089	0.03252088245466023	-0.1333948012831806	0.5589336943107187	0.019011607806416086	-0.12118055716626391	0.5236709629661267	0.002889677120569756	-0.09898211014671121	0.6056057475194601	0.03601095066172266	-0.10171798571050739	0.590177850791326	0.02750094361918054	-0.09790225738135161	0.567872001995405	0.017982473328131965	-0.09224294542565115	0.5318062070415162	0.002610760024207126	-0.08235913551013829	0.5986841366646363	0.02809208476892855	-0.05595178245175436	0.5843866672562559	0.018894924537746993	-0.05795043504747954	0.5655816332977026	0.00999828543320036	-0.06078460678911979	0.5321765794607249	-0.0029402505497919673	-0.06497747165284196	0.4622830810018609	-0.023011742144276925	-0.051989820119430985
30	1.0333333333333288	0.4738323627307668	-0.026694993852194093	-0.17522353698814996	0.4757077472966281	-0.02946212610786403	-0.15248973150359102	0.47372287227056964	-0.0323401966750011	-0.12156082947100172	0.4740938983511114	-0.030498694390790337	-0.07699221709654236	0.56319811636719	0.027662105860177477	-0.1783024831265163	0.5538627238446214	0.018327505937863253	-0.16590426991896473	0.5394272597889411	0.00873576804043208	-0.14769367479952555	0.5144790646787589	-0.00546650957302075	-0.11623705442583165	0.5944598305382988	0.04253137298037146	-0.14113525076364525	0.5812581391570788	0.03200138465033431	-0.13459042911257585	0.5582055932295278	0.019369708282407916	-0.12200351414527266	0.5229578493230761	0.0037604477775267098	-0.0994182212094713	0.6055341654348652	0.03519200750464235	-0.10334062168941316	0.5899093429958482	0.027171700942272503	-0.09927373019899877	0.5674409526905531	0.018283261835250086	-0.0932448773786293	0.5312462072181896	0.0036359842845868906	-0.08275114141165019	0.5991897602309995	0.02766523515956454	-0.05799404634019312	0.584606754798929	0.018847132631881758	-0.059599356397308845	0.5655390238877622	0.01038126639572734	-0.061957908022963526	0.5318378515754633	-0.0020174655984354084	-0.06533220509252591	0.4622830810018609	-0.023011742144276925	-0.051989820119430985
31	1.0666666666666622	0.4740262162939437	-0.026382661360296766	-0.17525062846553685	0.4756955780225638	-0.029165508834664067	-0.1525026836934607	0.473462750600679	-0.03216917174902689	-0.1216026433892643	0.47406441856698667	-0.030407159300001596	-0.07703333435504434	0.5623272492133149	0.029415204079760726	-0.17834332910431683	0.5528946745816541	0.020022676720075516	-0.16606298034641453	0.5384086849300731	0.010219559361701713	-0.14800571513619398	0.5134564519821916	-0.004473661464987733	-0.11677862070439021	0.5941733969928018	0.041287842751347115	-0.1428892546466215	0.580591405442044	0.03146613184452984	-0.13602897036839723	0.55720870620185	0.019899697412455564	-0.1230337204373203	0.5220399793378	0.004821309408518548	-0.09996966210049285	0.6051243601032541	0.034512286105426115	-0.10553531532895832	0.5893198550014489	0.027044999830117544	-0.10112427756335185	0.5667283909668255	0.018842917061330122	-0.09460265429714909	0.5305122238494553	0.004885661535873109	-0.08327547055520257	0.5995473617875446	0.027503062262824285	-0.06077232927813969	0.5846746106988348	0.019097053084178306	-0.06184017043758161	0.5653556647151153	0.011053046476955819	-0.06353849395832012	0.5313890541386785	-0.0008659530389191206	-0.06579465607334378	0.4622830810018609	-0.023011742144276925	-0.051989820119430985
32	1.0999999999999952	0.4742684410662281	-0.025976996545201136	-0.1752748659189332	0.47567991943361965	-0.028795806590832362	-0.15251388969327373	0.4731306102990738	-0.031965963157373656	-0.12165499907354899	0.47401128408231585	-0.030311800990034388	-0.07708619651826754	0.5614609736358602	0.03092578935817103	-0.17848540824853565	0.5518660395051901	0.021543997521692004	-0.16632320363896425	0.5372508835117602	0.011659360588783807	-0.14841507696439832	0.5121988035450763	-0.0033832810792102652	-0.11743527201034465	0.5936970514169012	0.03973198534103517	-0.14490090149234308	0.5797013118800853	0.030777908783085395	-0.1376936976092839	0.5559831319251124	0.020458153590590333	-0.12426387473664358	0.5209206422874693	0.005991834160176679	-0.100652535436481	0.604414622782284	0.033754091633033445	-0.10825717389644463	0.5884417377599025	0.026940077607915947	-0.1034160834276261	0.5657623610987893	0.01950939760933068	-0.09630195326140178	0.5296093149331544	0.00625747673327437	-0.08397050241244552	0.5997385624379427	0.027390687419556747	-0.06433544916294964	0.5845855163901201	0.01943785720512703	-0.06470651122382676	0.5650385983945518	0.011820739609646358	-0.06554885047326564	0.530835437015829	0.0004085097275312588	-0.06643666341460253	0.4622830810018609	-0.023011742144276925	-0.051989820119430985
33	1.1333333333333284	0.47469979849602595	-0.025437269851439903	-0.17527185854095378	0.4757861475729098	-0.028354005790614756	-0.15250538105443256	0.472811603762066	-0.03176339014179197	-0.12171011863529868	0.47393258537523364	-0.030245989901594217	-0.0771418463248984	0.5607244808193859	0.032077116625935376	-0.1786554144563844	0.5508968527797609	0.022785101659829943	-0.1666106568837118	0.5360662760984614	0.012946226311954523	-0.14885508423203248	0.5108222659694643	-0.0023078728309107177	-0.11813557079274206	0.5930574312646963	0.03790624026282208	-0.1469850621026222	0.578652468770887	0.02994141558149055	-0.13943134623904874	0.5546224523613594	0.02099185534008341	-0.12557951484954416	0.5196869357809439	0.007183586537121589	-0.10139296249240437	0.6034209109042001	0.03292713603505926	-0.11132290360095964	0.5873126181617706	0.026830765459380235	-0.10599775846414061	0.5645938071012696	0.020224300847450083	-0.09822664346508314	0.5286096825987063	0.007652621989408637	-0.0847427082652128	0.5997113548169	0.02729196460122152	-0.06843649987270006	0.5843174453248345	0.019819662653291492	-0.06799803191599052	0.5645940976069894	0.01262367795342334	-0.06785882703017909	0.5302283758525119	0.0016983772688713428	-0.06713881019289991	0.4622830810018609	-0.023011742144276925	-0.051989820119430985
34	1.1666666666666616	0.4753761324677348	-0.024638912971534532	-0.17521741041670907	0.47608450222860277	-0.02773202120065732	-0.15245931529069245	0.4726012021025121	-0.0314881408335933	-0.1217578790777944	0.4738777797497271	-0.030175555410223986	-0.0771872893462574	0.5602730431524976	0.03278623011264814	-0.17875532295473712	0.5501624897909909	0.023657321657409525	-0.1668205108012092	0.5350136453682227	0.013976489457173669	-0.149247695615086	0.5094204874651201	-0.0012601050098840494	-0.11880968399157005	0.5922886905333539	0.03600683801994509	-0.14891844491261463	0.5775307399550613	0.0290623913601179	-0.141045862406379	0.5532266603423204	0.021516103095762573	-0.1268411168046863	0.5184189627362181	0.008348592200373983	-0.10211888460000929	0.6021840650418407	0.03214491846804146	-0.11446678157050139	0.585994152173333	0.0267594662503865	-0.10864581724133043	0.5632970896785146	0.020958340235953665	-0.10019772455297893	0.5275575855560943	0.009014349851744874	-0.08554338141568862	0.599414613183358	0.02723204825879022	-0.07271721127048814	0.5838525267917647	0.020219432017912653	-0.07143476025825923	0.5640125277775396	0.013447719569348093	-0.07028134418870435	0.5295879684028968	0.0029581566565682893	-0.06787256176587708	0.4622830810018609	-0.023011742144276925	-0.051989820119430985
